<?xml version="1.0" standalone="no"?>
<!DOCTYPE svg PUBLIC "-//W3C//DTD SVG 20010904//EN"
 "http://www.w3.org/TR/2001/REC-SVG-20010904/DTD/svg10.dtd">
<svg version="1.0" xmlns="http://www.w3.org/2000/svg"
 width="300.000000pt" height="300.000000pt" viewBox="0 0 300.000000 300.000000"
 preserveAspectRatio="xMidYMid meet">
<metadata>
Created by potrace 1.10, written by Peter Selinger 2001-2011
</metadata>
<g transform="translate(0.000000,300.000000) scale(0.100000,-0.100000)"
fill="#000000" stroke="none">
<path d="M1286 2495 c-10 -69 -48 -148 -82 -172 -28 -20 -109 -47 -164 -56
-31 -4 -16 -10 64 -25 60 -12 114 -44 142 -86 8 -13 22 -56 32 -95 l16 -72 18
73 c28 112 72 157 176 178 79 17 93 23 62 27 -54 8 -136 36 -162 55 -37 26
-58 67 -78 153 l-16 70 -8 -50z m63 -186 l44 -50 -52 -52 c-49 -49 -53 -51
-64 -32 -6 11 -26 34 -45 52 l-35 33 44 49 c24 27 49 49 54 49 6 0 30 -22 54
-49z"/>
<path d="M1857 2113 c-9 -71 -33 -143 -65 -193 -33 -52 -99 -92 -188 -114 -32
-8 -72 -17 -89 -21 -26 -7 -20 -10 51 -25 101 -23 173 -58 212 -106 33 -39 70
-142 79 -216 6 -51 23 -56 23 -8 0 55 48 184 84 226 42 49 124 88 220 105 45
7 64 14 55 20 -8 5 -24 9 -35 9 -40 0 -158 42 -201 71 -53 37 -97 124 -114
224 -7 41 -16 75 -20 75 -3 0 -9 -21 -12 -47z m66 -223 c18 -25 56 -60 85 -79
l52 -34 -47 -30 c-53 -32 -123 -112 -123 -139 0 -29 -28 -20 -46 15 -31 58
-58 88 -113 122 l-54 34 33 18 c54 29 105 79 131 128 22 42 25 44 37 28 7 -10
27 -38 45 -63z"/>
<path d="M976 1938 c-12 -88 -46 -209 -78 -277 -39 -81 -102 -144 -182 -182
-65 -31 -241 -79 -288 -79 -15 0 -30 -4 -33 -10 -4 -6 6 -10 23 -10 38 0 223
-47 279 -71 151 -65 219 -173 271 -429 18 -91 19 -93 26 -55 18 96 57 240 80
290 62 136 197 217 429 256 79 13 103 29 45 29 -51 0 -226 48 -293 80 -74 35
-147 109 -181 185 -27 58 -74 232 -74 274 0 54 -17 53 -24 -1z m29 -205 c15
-62 70 -157 118 -207 48 -48 91 -74 202 -121 l40 -17 -35 -15 c-190 -82 -259
-146 -311 -288 -12 -33 -25 -63 -28 -68 -4 -4 -22 29 -40 73 -56 137 -133 215
-263 267 -72 28 -81 38 -45 48 121 36 248 138 288 232 11 27 27 65 36 86 19
44 28 47 38 10z"/>
</g>
</svg>
